{
	"asset":{
		"generator":"Khronos glTF Blender I/O v3.5.30",
		"version":"2.0"
	},
	"extensionsUsed":[
		"KHR_lights_punctual"
	],
	"extensionsRequired":[
		"KHR_lights_punctual"
	],
	"extensions":{
		"KHR_lights_punctual":{
			"lights":[
				{
					"color":[
						1,
						1,
						1
					],
					"intensity":79.57747154594767,
					"type":"point",
					"name":"Light"
				}
			]
		}
	},
	"scene":0,
	"scenes":[
		{
			"extras":{
				"t3dExportFilepath__":"/home/ubuntu/Dev/supervision-apps/webgl-01/assets/arma.gltf",
				"t3dExportFormat__":2,
				"t3dCollections__":{
					"Collection":{
						"objects":[
							"Light",
							"Camera",
							"arma_special",
							"asterix_helmet"
						],
						"offset":[
							0.0,
							0.0,
							0.0
						]
					}
				},
				"t3dWorlds__":{
					"World":{
						"ambient color":[
							0.05087608844041824,
							0.05087608844041824,
							0.05087608844041824,
							1.0
						],
						"ambient energy":1.0
					}
				},
				"t3dCurrentWorld__":"World"
			},
			"name":"Scene",
			"nodes":[
				0,
				1,
				2,
				3
			]
		}
	],
	"nodes":[
		{
			"extensions":{
				"KHR_lights_punctual":{
					"light":0
				}
			},
			"extras":{
				"t3dOriginalLocalPosition__":[
					4.076245307922363,
					1.0054539442062378,
					5.903861999511719
				]
			},
			"name":"Light",
			"rotation":[
				-0.28416627645492554,
				0.7269423007965088,
				0.34203392267227173,
				0.5232754945755005
			],
			"translation":[
				4.076245307922363,
				5.903861999511719,
				-1.0054539442062378
			]
		},
		{
			"camera":0,
			"extras":{
				"t3dOriginalLocalPosition__":[
					7.358891487121582,
					-6.925790786743164,
					4.958309173583984
				]
			},
			"name":"Camera",
			"rotation":[
				-0.20997299253940582,
				0.3857799470424652,
				0.09062844514846802,
				0.8937962055206299
			],
			"translation":[
				7.358891487121582,
				4.958309173583984,
				6.925790786743164
			]
		},
		{
			"extras":{
				"t3dOriginalLocalPosition__":[
					0.0,
					0.0,
					0.0
				]
			},
			"mesh":0,
			"name":"arma_special",
			"rotation":[
				0.7071068286895752,
				0,
				0,
				0.7071068286895752
			]
		},
		{
			"extras":{
				"t3dOriginalLocalPosition__":[
					0.0,
					0.0,
					0.0
				]
			},
			"mesh":1,
			"name":"asterix_helmet",
			"rotation":[
				0.7071068286895752,
				0,
				0,
				0.7071068286895752
			]
		}
	],
	"cameras":[
		{
			"name":"Camera",
			"perspective":{
				"aspectRatio":1.7777777777777777,
				"yfov":0.39959652046304894,
				"zfar":100,
				"znear":0.10000000149011612
			},
			"type":"perspective"
		}
	],
	"materials":[
		{
			"doubleSided":true,
			"name":"main_color.002",
			"pbrMetallicRoughness":{
				"baseColorFactor":[
					1,
					0.05126899853348732,
					0.04231100156903267,
					1
				],
				"metallicFactor":0,
				"roughnessFactor":0.5
			}
		},
		{
			"doubleSided":true,
			"name":"rim.001",
			"pbrMetallicRoughness":{
				"baseColorFactor":[
					0.6000000238418579,
					0.6000000238418579,
					0.6000000238418579,
					1
				],
				"metallicFactor":0,
				"roughnessFactor":0.5
			}
		},
		{
			"doubleSided":true,
			"name":"logo.002",
			"pbrMetallicRoughness":{
				"baseColorFactor":[
					0.800000011920929,
					0.800000011920929,
					0.800000011920929,
					1
				],
				"metallicFactor":0,
				"roughnessFactor":0.5
			}
		},
		{
			"doubleSided":true,
			"name":"glass.002",
			"pbrMetallicRoughness":{
				"baseColorFactor":[
					0.1599999964237213,
					0.1599999964237213,
					0.20000000298023224,
					1
				],
				"metallicFactor":0,
				"roughnessFactor":0.5
			}
		},
		{
			"doubleSided":true,
			"name":"sensors.002",
			"pbrMetallicRoughness":{
				"baseColorFactor":[
					0.30000001192092896,
					0.30000001192092896,
					0.30000001192092896,
					1
				],
				"metallicFactor":0,
				"roughnessFactor":0.5
			}
		},
		{
			"doubleSided":true,
			"name":"shade.002",
			"pbrMetallicRoughness":{
				"baseColorFactor":[
					0.6000000238418579,
					0.030762000009417534,
					0.025387000292539597,
					1
				],
				"metallicFactor":0,
				"roughnessFactor":0.5
			}
		},
		{
			"doubleSided":true,
			"name":"tyre.001",
			"pbrMetallicRoughness":{
				"baseColorFactor":[
					0.20000000298023224,
					0.20000000298023224,
					0.20000000298023224,
					1
				],
				"metallicFactor":0,
				"roughnessFactor":0.5
			}
		},
		{
			"doubleSided":true,
			"name":"feathers",
			"pbrMetallicRoughness":{
				"metallicFactor":0,
				"roughnessFactor":0.5
			}
		},
		{
			"doubleSided":true,
			"name":"helmet",
			"pbrMetallicRoughness":{
				"baseColorFactor":[
					0.30000001192092896,
					0.30000001192092896,
					0.30000001192092896,
					1
				],
				"metallicFactor":0,
				"roughnessFactor":0.5
			}
		}
	],
	"meshes":[
		{
			"name":"arma_special",
			"primitives":[
				{
					"attributes":{
						"POSITION":0,
						"NORMAL":1
					},
					"indices":2,
					"material":0
				},
				{
					"attributes":{
						"POSITION":3,
						"NORMAL":4
					},
					"indices":5,
					"material":1
				},
				{
					"attributes":{
						"POSITION":6,
						"NORMAL":7
					},
					"indices":8,
					"material":2
				},
				{
					"attributes":{
						"POSITION":9,
						"NORMAL":10
					},
					"indices":11,
					"material":3
				},
				{
					"attributes":{
						"POSITION":12,
						"NORMAL":13
					},
					"indices":14,
					"material":4
				},
				{
					"attributes":{
						"POSITION":15,
						"NORMAL":16
					},
					"indices":17,
					"material":5
				},
				{
					"attributes":{
						"POSITION":18,
						"NORMAL":19
					},
					"indices":20,
					"material":6
				}
			]
		},
		{
			"name":"asterix_helmet",
			"primitives":[
				{
					"attributes":{
						"POSITION":21,
						"NORMAL":22
					},
					"indices":23,
					"material":7
				},
				{
					"attributes":{
						"POSITION":24,
						"NORMAL":25
					},
					"indices":26,
					"material":8
				}
			]
		}
	],
	"accessors":[
		{
			"bufferView":0,
			"componentType":5126,
			"count":30425,
			"max":[
				2.3790082931518555,
				1.0581486225128174,
				-0.2443539947271347
			],
			"min":[
				-2.3797965049743652,
				-1.04775869846344,
				-2.6472599506378174
			],
			"type":"VEC3"
		},
		{
			"bufferView":1,
			"componentType":5126,
			"count":30425,
			"type":"VEC3"
		},
		{
			"bufferView":2,
			"componentType":5123,
			"count":46917,
			"type":"SCALAR"
		},
		{
			"bufferView":3,
			"componentType":5126,
			"count":40271,
			"max":[
				1.722851037979126,
				1.017207145690918,
				-0.05911700055003166
			],
			"min":[
				-1.723639965057373,
				-1.0068185329437256,
				-0.630882978439331
			],
			"type":"VEC3"
		},
		{
			"bufferView":4,
			"componentType":5126,
			"count":40271,
			"type":"VEC3"
		},
		{
			"bufferView":5,
			"componentType":5123,
			"count":58758,
			"type":"SCALAR"
		},
		{
			"bufferView":6,
			"componentType":5126,
			"count":1813,
			"max":[
				2.269347667694092,
				0.19658412039279938,
				-0.9063501358032227
			],
			"min":[
				-2.2701363563537598,
				-0.18619480729103088,
				-0.9827480316162109
			],
			"type":"VEC3"
		},
		{
			"bufferView":7,
			"componentType":5126,
			"count":1813,
			"type":"VEC3"
		},
		{
			"bufferView":8,
			"componentType":5123,
			"count":2886,
			"type":"SCALAR"
		},
		{
			"bufferView":9,
			"componentType":5126,
			"count":1153,
			"max":[
				2.2060766220092773,
				1.0033769607543945,
				-0.4916999936103821
			],
			"min":[
				-2.2068662643432617,
				-0.9545489549636841,
				-2.4274213314056396
			],
			"type":"VEC3"
		},
		{
			"bufferView":10,
			"componentType":5126,
			"count":1153,
			"type":"VEC3"
		},
		{
			"bufferView":11,
			"componentType":5123,
			"count":1590,
			"type":"SCALAR"
		},
		{
			"bufferView":12,
			"componentType":5126,
			"count":438,
			"max":[
				2.337460994720459,
				1.053389310836792,
				-0.28755199909210205
			],
			"min":[
				-2.338249921798706,
				-1.0430008172988892,
				-2.4292261600494385
			],
			"type":"VEC3"
		},
		{
			"bufferView":13,
			"componentType":5126,
			"count":438,
			"type":"VEC3"
		},
		{
			"bufferView":14,
			"componentType":5123,
			"count":558,
			"type":"SCALAR"
		},
		{
			"bufferView":15,
			"componentType":5126,
			"count":1296,
			"max":[
				2.374943494796753,
				1.009661078453064,
				-0.2443539947271347
			],
			"min":[
				-2.375732898712158,
				-0.9992720484733582,
				-1.1280020475387573
			],
			"type":"VEC3"
		},
		{
			"bufferView":16,
			"componentType":5126,
			"count":1296,
			"type":"VEC3"
		},
		{
			"bufferView":17,
			"componentType":5123,
			"count":2109,
			"type":"SCALAR"
		},
		{
			"bufferView":18,
			"componentType":5126,
			"count":1256,
			"max":[
				1.7793614864349365,
				1.0169938802719116,
				-0.0002435993228573352
			],
			"min":[
				-1.7801501750946045,
				-1.0066049098968506,
				-0.6897563934326172
			],
			"type":"VEC3"
		},
		{
			"bufferView":19,
			"componentType":5126,
			"count":1256,
			"type":"VEC3"
		},
		{
			"bufferView":20,
			"componentType":5123,
			"count":3714,
			"type":"SCALAR"
		},
		{
			"bufferView":21,
			"componentType":5126,
			"count":1977,
			"max":[
				0.13748110830783844,
				0.6624074578285217,
				-2.69735050201416
			],
			"min":[
				-1.7607148885726929,
				-0.6623990535736084,
				-4.368626117706299
			],
			"type":"VEC3"
		},
		{
			"bufferView":22,
			"componentType":5126,
			"count":1977,
			"type":"VEC3"
		},
		{
			"bufferView":23,
			"componentType":5123,
			"count":8043,
			"type":"SCALAR"
		},
		{
			"bufferView":24,
			"componentType":5126,
			"count":3741,
			"max":[
				0.6528545022010803,
				0.6524603962898254,
				-2.4600021839141846
			],
			"min":[
				-0.6541344523429871,
				-0.6524603962898254,
				-3.270206928253174
			],
			"type":"VEC3"
		},
		{
			"bufferView":25,
			"componentType":5126,
			"count":3741,
			"type":"VEC3"
		},
		{
			"bufferView":26,
			"componentType":5123,
			"count":7428,
			"type":"SCALAR"
		}
	],
	"bufferViews":[
		{
			"buffer":0,
			"byteLength":365100,
			"byteOffset":0,
			"target":34962
		},
		{
			"buffer":0,
			"byteLength":365100,
			"byteOffset":365100,
			"target":34962
		},
		{
			"buffer":0,
			"byteLength":93834,
			"byteOffset":730200,
			"target":34963
		},
		{
			"buffer":0,
			"byteLength":483252,
			"byteOffset":824036,
			"target":34962
		},
		{
			"buffer":0,
			"byteLength":483252,
			"byteOffset":1307288,
			"target":34962
		},
		{
			"buffer":0,
			"byteLength":117516,
			"byteOffset":1790540,
			"target":34963
		},
		{
			"buffer":0,
			"byteLength":21756,
			"byteOffset":1908056,
			"target":34962
		},
		{
			"buffer":0,
			"byteLength":21756,
			"byteOffset":1929812,
			"target":34962
		},
		{
			"buffer":0,
			"byteLength":5772,
			"byteOffset":1951568,
			"target":34963
		},
		{
			"buffer":0,
			"byteLength":13836,
			"byteOffset":1957340,
			"target":34962
		},
		{
			"buffer":0,
			"byteLength":13836,
			"byteOffset":1971176,
			"target":34962
		},
		{
			"buffer":0,
			"byteLength":3180,
			"byteOffset":1985012,
			"target":34963
		},
		{
			"buffer":0,
			"byteLength":5256,
			"byteOffset":1988192,
			"target":34962
		},
		{
			"buffer":0,
			"byteLength":5256,
			"byteOffset":1993448,
			"target":34962
		},
		{
			"buffer":0,
			"byteLength":1116,
			"byteOffset":1998704,
			"target":34963
		},
		{
			"buffer":0,
			"byteLength":15552,
			"byteOffset":1999820,
			"target":34962
		},
		{
			"buffer":0,
			"byteLength":15552,
			"byteOffset":2015372,
			"target":34962
		},
		{
			"buffer":0,
			"byteLength":4218,
			"byteOffset":2030924,
			"target":34963
		},
		{
			"buffer":0,
			"byteLength":15072,
			"byteOffset":2035144,
			"target":34962
		},
		{
			"buffer":0,
			"byteLength":15072,
			"byteOffset":2050216,
			"target":34962
		},
		{
			"buffer":0,
			"byteLength":7428,
			"byteOffset":2065288,
			"target":34963
		},
		{
			"buffer":0,
			"byteLength":23724,
			"byteOffset":2072716,
			"target":34962
		},
		{
			"buffer":0,
			"byteLength":23724,
			"byteOffset":2096440,
			"target":34962
		},
		{
			"buffer":0,
			"byteLength":16086,
			"byteOffset":2120164,
			"target":34963
		},
		{
			"buffer":0,
			"byteLength":44892,
			"byteOffset":2136252,
			"target":34962
		},
		{
			"buffer":0,
			"byteLength":44892,
			"byteOffset":2181144,
			"target":34962
		},
		{
			"buffer":0,
			"byteLength":14856,
			"byteOffset":2226036,
			"target":34963
		}
	],
	"buffers":[
		{
			"byteLength":2240892,
			"uri":"data:application/octet-stream;base64,"
		}
	]
}
