{
	"asset":{
		"generator":"Khronos glTF Blender I/O v3.5.30",
		"version":"2.0"
	},
	"extensionsUsed":[
		"KHR_lights_punctual"
	],
	"extensionsRequired":[
		"KHR_lights_punctual"
	],
	"extensions":{
		"KHR_lights_punctual":{
			"lights":[
				{
					"color":[
						1,
						1,
						1
					],
					"intensity":79.57747154594767,
					"type":"point",
					"name":"Light"
				}
			]
		}
	},
	"scene":0,
	"scenes":[
		{
			"extras":{
				"t3dExportFilepath__":"/home/ubuntu/Dev/supervision-apps/webgl-01/assets/next.gltf",
				"t3dExportFormat__":2,
				"t3dCollections__":{
					"Collection":{
						"objects":[
							"Light",
							"Camera",
							"next"
						],
						"offset":[
							0.0,
							0.0,
							0.0
						]
					}
				},
				"t3dWorlds__":{
					"World":{
						"ambient color":[
							0.05087608844041824,
							0.05087608844041824,
							0.05087608844041824,
							1.0
						],
						"ambient energy":1.0
					}
				},
				"t3dCurrentWorld__":"World"
			},
			"name":"Scene",
			"nodes":[
				0,
				1,
				2
			]
		}
	],
	"nodes":[
		{
			"extensions":{
				"KHR_lights_punctual":{
					"light":0
				}
			},
			"extras":{
				"t3dOriginalLocalPosition__":[
					4.076245307922363,
					1.0054539442062378,
					5.903861999511719
				]
			},
			"name":"Light",
			"rotation":[
				-0.28416627645492554,
				0.7269423007965088,
				0.34203392267227173,
				0.5232754945755005
			],
			"translation":[
				4.076245307922363,
				5.903861999511719,
				-1.0054539442062378
			]
		},
		{
			"camera":0,
			"extras":{
				"t3dOriginalLocalPosition__":[
					7.358891487121582,
					-6.925790786743164,
					4.958309173583984
				]
			},
			"name":"Camera",
			"rotation":[
				-0.20997299253940582,
				0.3857799470424652,
				0.09062844514846802,
				0.8937962055206299
			],
			"translation":[
				7.358891487121582,
				4.958309173583984,
				6.925790786743164
			]
		},
		{
			"extras":{
				"t3dOriginalLocalPosition__":[
					0.0,
					0.0,
					0.0
				]
			},
			"mesh":0,
			"name":"next",
			"rotation":[
				0.7071068286895752,
				0,
				0,
				0.7071068286895752
			]
		}
	],
	"cameras":[
		{
			"name":"Camera",
			"perspective":{
				"aspectRatio":1.7777777777777777,
				"yfov":0.39959652046304894,
				"zfar":100,
				"znear":0.10000000149011612
			},
			"type":"perspective"
		}
	],
	"materials":[
		{
			"doubleSided":true,
			"name":"main_color",
			"pbrMetallicRoughness":{
				"metallicFactor":0,
				"roughnessFactor":0.5
			}
		}
	],
	"meshes":[
		{
			"name":"next",
			"primitives":[
				{
					"attributes":{
						"POSITION":0,
						"TEXCOORD_0":1,
						"NORMAL":2
					},
					"indices":3,
					"material":0
				},
				{
					"attributes":{
						"POSITION":4,
						"TEXCOORD_0":5,
						"NORMAL":6
					},
					"indices":7
				},
				{
					"attributes":{
						"POSITION":8,
						"TEXCOORD_0":9,
						"NORMAL":10
					},
					"indices":11
				},
				{
					"attributes":{
						"POSITION":12,
						"TEXCOORD_0":13,
						"NORMAL":14
					},
					"indices":15
				},
				{
					"attributes":{
						"POSITION":16,
						"TEXCOORD_0":17,
						"NORMAL":18
					},
					"indices":19
				}
			]
		}
	],
	"accessors":[
		{
			"bufferView":0,
			"componentType":5126,
			"count":49567,
			"max":[
				2.9699816703796387,
				1.0865459442138672,
				-0.24458494782447815
			],
			"min":[
				-2.9697396755218506,
				-1.086635947227478,
				-2.951539993286133
			],
			"type":"VEC3"
		},
		{
			"bufferView":1,
			"componentType":5126,
			"count":49567,
			"type":"VEC2"
		},
		{
			"bufferView":2,
			"componentType":5126,
			"count":49567,
			"type":"VEC3"
		},
		{
			"bufferView":3,
			"componentType":5123,
			"count":50466,
			"type":"SCALAR"
		},
		{
			"bufferView":4,
			"componentType":5126,
			"count":1116,
			"max":[
				2.8560171127319336,
				1.0751159191131592,
				-0.4024595618247986
			],
			"min":[
				-2.895723581314087,
				-1.0751391649246216,
				-2.945547103881836
			],
			"type":"VEC3"
		},
		{
			"bufferView":5,
			"componentType":5126,
			"count":1116,
			"type":"VEC2"
		},
		{
			"bufferView":6,
			"componentType":5126,
			"count":1116,
			"type":"VEC3"
		},
		{
			"bufferView":7,
			"componentType":5123,
			"count":1320,
			"type":"SCALAR"
		},
		{
			"bufferView":8,
			"componentType":5126,
			"count":5033,
			"max":[
				1.970695972442627,
				1.0664063692092896,
				-0.1611649990081787
			],
			"min":[
				-2.4042038917541504,
				-1.0665053129196167,
				-0.6360070109367371
			],
			"type":"VEC3"
		},
		{
			"bufferView":9,
			"componentType":5126,
			"count":5033,
			"type":"VEC2"
		},
		{
			"bufferView":10,
			"componentType":5126,
			"count":5033,
			"type":"VEC3"
		},
		{
			"bufferView":11,
			"componentType":5123,
			"count":5808,
			"type":"SCALAR"
		},
		{
			"bufferView":12,
			"componentType":5126,
			"count":8180,
			"max":[
				2.1318519115448,
				1.0486500263214111,
				3.000000106112566e-06
			],
			"min":[
				-2.565359115600586,
				-1.0487480163574219,
				-0.7971739768981934
			],
			"type":"VEC3"
		},
		{
			"bufferView":13,
			"componentType":5126,
			"count":8180,
			"type":"VEC2"
		},
		{
			"bufferView":14,
			"componentType":5126,
			"count":8180,
			"type":"VEC3"
		},
		{
			"bufferView":15,
			"componentType":5123,
			"count":9384,
			"type":"SCALAR"
		},
		{
			"bufferView":16,
			"componentType":5126,
			"count":1467,
			"max":[
				2.9553422927856445,
				1.0828155279159546,
				-0.24458500742912292
			],
			"min":[
				-2.9599387645721436,
				-1.0829998254776,
				-1.3548660278320312
			],
			"type":"VEC3"
		},
		{
			"bufferView":17,
			"componentType":5126,
			"count":1467,
			"type":"VEC2"
		},
		{
			"bufferView":18,
			"componentType":5126,
			"count":1467,
			"type":"VEC3"
		},
		{
			"bufferView":19,
			"componentType":5123,
			"count":2544,
			"type":"SCALAR"
		}
	],
	"bufferViews":[
		{
			"buffer":0,
			"byteLength":594804,
			"byteOffset":0,
			"target":34962
		},
		{
			"buffer":0,
			"byteLength":396536,
			"byteOffset":594804,
			"target":34962
		},
		{
			"buffer":0,
			"byteLength":594804,
			"byteOffset":991340,
			"target":34962
		},
		{
			"buffer":0,
			"byteLength":100932,
			"byteOffset":1586144,
			"target":34963
		},
		{
			"buffer":0,
			"byteLength":13392,
			"byteOffset":1687076,
			"target":34962
		},
		{
			"buffer":0,
			"byteLength":8928,
			"byteOffset":1700468,
			"target":34962
		},
		{
			"buffer":0,
			"byteLength":13392,
			"byteOffset":1709396,
			"target":34962
		},
		{
			"buffer":0,
			"byteLength":2640,
			"byteOffset":1722788,
			"target":34963
		},
		{
			"buffer":0,
			"byteLength":60396,
			"byteOffset":1725428,
			"target":34962
		},
		{
			"buffer":0,
			"byteLength":40264,
			"byteOffset":1785824,
			"target":34962
		},
		{
			"buffer":0,
			"byteLength":60396,
			"byteOffset":1826088,
			"target":34962
		},
		{
			"buffer":0,
			"byteLength":11616,
			"byteOffset":1886484,
			"target":34963
		},
		{
			"buffer":0,
			"byteLength":98160,
			"byteOffset":1898100,
			"target":34962
		},
		{
			"buffer":0,
			"byteLength":65440,
			"byteOffset":1996260,
			"target":34962
		},
		{
			"buffer":0,
			"byteLength":98160,
			"byteOffset":2061700,
			"target":34962
		},
		{
			"buffer":0,
			"byteLength":18768,
			"byteOffset":2159860,
			"target":34963
		},
		{
			"buffer":0,
			"byteLength":17604,
			"byteOffset":2178628,
			"target":34962
		},
		{
			"buffer":0,
			"byteLength":11736,
			"byteOffset":2196232,
			"target":34962
		},
		{
			"buffer":0,
			"byteLength":17604,
			"byteOffset":2207968,
			"target":34962
		},
		{
			"buffer":0,
			"byteLength":5088,
			"byteOffset":2225572,
			"target":34963
		}
	],
	"buffers":[
		{
			"byteLength":2230660,
			"uri":"data:application/octet-stream;base64,"
		}
	]
}
