{
	"asset":{
		"generator":"Khronos glTF Blender I/O v3.5.30",
		"version":"2.0"
	},
	"extensionsUsed":[
		"KHR_lights_punctual",
		"KHR_materials_specular",
		"KHR_materials_ior"
	],
	"extensionsRequired":[
		"KHR_lights_punctual"
	],
	"extensions":{
		"KHR_lights_punctual":{
			"lights":[
				{
					"color":[
						1,
						1,
						1
					],
					"intensity":79.57747154594767,
					"type":"point",
					"name":"Light"
				}
			]
		}
	},
	"scene":0,
	"scenes":[
		{
			"extras":{
				"t3dExportFilepath__":"/home/ubuntu/Dev/supervision-apps/webgl-01/assets/track.gltf",
				"t3dExportFormat__":2,
				"t3dCollections__":{
					"Collection":{
						"objects":[
							"Light",
							"Camera",
							"race_track"
						],
						"offset":[
							0.0,
							0.0,
							0.0
						]
					}
				},
				"t3dWorlds__":{
					"World":{
						"ambient color":[
							0.05087608844041824,
							0.05087608844041824,
							0.05087608844041824,
							1.0
						],
						"ambient energy":1.0
					}
				},
				"t3dCurrentWorld__":"World"
			},
			"name":"Scene",
			"nodes":[
				0,
				1,
				2
			]
		}
	],
	"nodes":[
		{
			"extensions":{
				"KHR_lights_punctual":{
					"light":0
				}
			},
			"extras":{
				"t3dOriginalLocalPosition__":[
					4.076245307922363,
					1.0054539442062378,
					5.903861999511719
				]
			},
			"name":"Light",
			"rotation":[
				-0.28416627645492554,
				0.7269423007965088,
				0.34203392267227173,
				0.5232754945755005
			],
			"translation":[
				4.076245307922363,
				5.903861999511719,
				-1.0054539442062378
			]
		},
		{
			"camera":0,
			"extras":{
				"t3dOriginalLocalPosition__":[
					7.358891487121582,
					-6.925790786743164,
					4.958309173583984
				]
			},
			"name":"Camera",
			"rotation":[
				-0.20997299253940582,
				0.3857799470424652,
				0.09062844514846802,
				0.8937962055206299
			],
			"translation":[
				7.358891487121582,
				4.958309173583984,
				6.925790786743164
			]
		},
		{
			"extras":{
				"t3dOriginalLocalPosition__":[
					0.0,
					0.0,
					0.0
				]
			},
			"mesh":0,
			"name":"race_track",
			"rotation":[
				0.7071068286895752,
				0,
				0,
				0.7071068286895752
			]
		}
	],
	"cameras":[
		{
			"name":"Camera",
			"perspective":{
				"aspectRatio":1.7777777777777777,
				"yfov":0.39959652046304894,
				"zfar":100,
				"znear":0.10000000149011612
			},
			"type":"perspective"
		}
	],
	"materials":[
		{
			"doubleSided":true,
			"extensions":{
				"KHR_materials_specular":{
					"specularColorFactor":[
						0,
						0,
						0
					]
				},
				"KHR_materials_ior":{
					"ior":1.4500000476837158
				}
			},
			"name":"outer grass.001",
			"pbrMetallicRoughness":{
				"baseColorFactor":[
					0.800000011920929,
					0.800000011920929,
					0.800000011920929,
					1
				],
				"metallicFactor":0
			}
		},
		{
			"doubleSided":true,
			"extensions":{
				"KHR_materials_specular":{
					"specularColorFactor":[
						0,
						0,
						0
					]
				},
				"KHR_materials_ior":{
					"ior":1.4500000476837158
				}
			},
			"name":"track.001",
			"pbrMetallicRoughness":{
				"baseColorFactor":[
					0.800000011920929,
					0.800000011920929,
					0.800000011920929,
					1
				],
				"metallicFactor":0
			}
		},
		{
			"doubleSided":true,
			"extensions":{
				"KHR_materials_specular":{
					"specularColorFactor":[
						0,
						0,
						0
					]
				},
				"KHR_materials_ior":{
					"ior":1.4500000476837158
				}
			},
			"name":"inner grass area.001",
			"pbrMetallicRoughness":{
				"baseColorFactor":[
					0.800000011920929,
					0.800000011920929,
					0.800000011920929,
					1
				],
				"metallicFactor":0
			}
		}
	],
	"meshes":[
		{
			"name":"race_track.001",
			"primitives":[
				{
					"attributes":{
						"POSITION":0,
						"NORMAL":1
					},
					"indices":2,
					"material":0
				},
				{
					"attributes":{
						"POSITION":3,
						"NORMAL":4
					},
					"indices":5,
					"material":1
				},
				{
					"attributes":{
						"POSITION":6,
						"NORMAL":7
					},
					"indices":8,
					"material":2
				}
			]
		}
	],
	"accessors":[
		{
			"bufferView":0,
			"componentType":5126,
			"count":1720,
			"max":[
				420.0432434082031,
				49.67216873168945,
				322.2290954589844
			],
			"min":[
				-423.0228576660156,
				2.9692630767822266,
				-322.20880126953125
			],
			"type":"VEC3"
		},
		{
			"bufferView":1,
			"componentType":5126,
			"count":1720,
			"type":"VEC3"
		},
		{
			"bufferView":2,
			"componentType":5123,
			"count":5682,
			"type":"SCALAR"
		},
		{
			"bufferView":3,
			"componentType":5126,
			"count":831,
			"max":[
				139.02120971679688,
				33.66080093383789,
				144.79885864257812
			],
			"min":[
				-229.76739501953125,
				3.6177473068237305,
				-106.23690795898438
			],
			"type":"VEC3"
		},
		{
			"bufferView":4,
			"componentType":5126,
			"count":831,
			"type":"VEC3"
		},
		{
			"bufferView":5,
			"componentType":5123,
			"count":1746,
			"type":"SCALAR"
		},
		{
			"bufferView":6,
			"componentType":5126,
			"count":427,
			"max":[
				130.77774047851562,
				31.64072036743164,
				134.68899536132812
			],
			"min":[
				-219.22433471679688,
				4.415006637573242,
				-96.2381591796875
			],
			"type":"VEC3"
		},
		{
			"bufferView":7,
			"componentType":5126,
			"count":427,
			"type":"VEC3"
		},
		{
			"bufferView":8,
			"componentType":5123,
			"count":1080,
			"type":"SCALAR"
		}
	],
	"bufferViews":[
		{
			"buffer":0,
			"byteLength":20640,
			"byteOffset":0,
			"target":34962
		},
		{
			"buffer":0,
			"byteLength":20640,
			"byteOffset":20640,
			"target":34962
		},
		{
			"buffer":0,
			"byteLength":11364,
			"byteOffset":41280,
			"target":34963
		},
		{
			"buffer":0,
			"byteLength":9972,
			"byteOffset":52644,
			"target":34962
		},
		{
			"buffer":0,
			"byteLength":9972,
			"byteOffset":62616,
			"target":34962
		},
		{
			"buffer":0,
			"byteLength":3492,
			"byteOffset":72588,
			"target":34963
		},
		{
			"buffer":0,
			"byteLength":5124,
			"byteOffset":76080,
			"target":34962
		},
		{
			"buffer":0,
			"byteLength":5124,
			"byteOffset":81204,
			"target":34962
		},
		{
			"buffer":0,
			"byteLength":2160,
			"byteOffset":86328,
			"target":34963
		}
	],
	"buffers":[
		{
			"byteLength":88488,
			"uri":"data:application/octet-stream;base64,"
		}
	]
}
